<?xml version="1.0" encoding="UTF-8" standalone="no"?>
<!-- Created with Inkscape (http://www.inkscape.org/) -->

<svg
   width="29.964951mm"
   height="30.197426mm"
   viewBox="0 0 29.964951 30.197426"
   version="1.1"
   id="svg7126"
   sodipodi:docname="bubble outline.svg"
   inkscape:version="1.1 (c68e22c387, 2021-05-23)"
   xmlns:inkscape="http://www.inkscape.org/namespaces/inkscape"
   xmlns:sodipodi="http://sodipodi.sourceforge.net/DTD/sodipodi-0.dtd"
   xmlns="http://www.w3.org/2000/svg"
   xmlns:svg="http://www.w3.org/2000/svg">
  <sodipodi:namedview
     id="namedview7128"
     pagecolor="#505050"
     bordercolor="#eeeeee"
     borderopacity="1"
     inkscape:pageshadow="0"
     inkscape:pageopacity="0"
     inkscape:pagecheckerboard="0"
     inkscape:document-units="mm"
     showgrid="false"
     inkscape:zoom="2.8934905"
     inkscape:cx="28.85788"
     inkscape:cy="78.451961"
     inkscape:window-width="998"
     inkscape:window-height="1030"
     inkscape:window-x="2451"
     inkscape:window-y="65"
     inkscape:window-maximized="0"
     inkscape:current-layer="layer1" />
  <defs
     id="defs7123" />
  <g
     inkscape:label="Layer 1"
     inkscape:groupmode="layer"
     id="layer1"
     transform="translate(-153.83776,-60.792625)">
    <path
       d="m 169.09117,60.792625 c -8.12271,0 -14.70907,6.585656 -14.70907,14.710128 0,2.779536 0.77153,5.378097 2.11138,7.595658 l -2.65572,7.891639 8.14388,-2.606675 c 2.10785,1.164872 4.53108,1.829505 7.10953,1.829505 8.12588,0 14.71154,-6.586361 14.71154,-14.710127 0,-8.124472 -6.58566,-14.710128 -14.71154,-14.710128 z m 0,26.95575 c -2.48603,0 -4.80272,-0.745772 -6.73629,-2.024945 l -4.70606,1.506361 1.52965,-4.547305 c -1.46579,-2.018947 -2.33151,-4.498975 -2.33151,-7.179733 0,-6.753578 5.4931,-12.246328 12.24421,-12.246328 6.75322,0 12.24633,5.49275 12.24633,12.246328 0,6.751814 -5.49311,12.245622 -12.24633,12.245622 z m 6.89786,-8.903053 c -0.3683,-0.202494 -2.18016,-1.179689 -2.51954,-1.317978 -0.33937,-0.137936 -0.58772,-0.209902 -0.85301,0.156987 -0.26317,0.365477 -1.01565,1.184275 -1.24249,1.42628 -0.2293,0.243417 -0.44908,0.265995 -0.81879,0.0635 -0.36724,-0.201789 -1.56246,-0.643819 -2.94887,-1.976614 -1.07915,-1.037166 -1.78647,-2.294114 -1.99143,-2.678289 -0.20602,-0.384175 -0.001,-0.579966 0.19332,-0.75953 0.17568,-0.162983 0.39264,-0.425803 0.58879,-0.63747 0.19473,-0.211666 0.26352,-0.366183 0.39793,-0.611716 0.13476,-0.245534 0.0804,-0.467078 -0.007,-0.658636 -0.0871,-0.191206 -0.76871,-2.067278 -1.05305,-2.830689 -0.28469,-0.762706 -0.60219,-0.649817 -0.82091,-0.658283 -0.21943,-0.0074 -0.46814,-0.04833 -0.71825,-0.05821 -0.25154,-0.0092 -0.66146,0.0695 -1.01883,0.432153 -0.35842,0.362656 -1.36313,1.234722 -1.43192,3.082925 -0.0699,1.847144 1.20897,3.683 1.38747,3.939469 0.17816,0.258234 2.44087,4.262967 6.20042,5.909381 3.76203,1.647119 3.78178,1.145469 4.47111,1.108427 0.69109,-0.03669 2.25601,-0.826205 2.60209,-1.690511 0.34607,-0.864658 0.37394,-1.616427 0.2861,-1.776236 -0.0882,-0.159808 -0.33514,-0.263525 -0.70344,-0.464961"
       style="fill:#000000;fill-opacity:1;fill-rule:evenodd;stroke:none;stroke-width:0.0352778"
       id="path46" />
  </g>
</svg>
