<?xml version="1.0" encoding="UTF-8" standalone="no"?>
<svg
   width="24.000265"
   height="10.599204"
   viewBox="0 0 24.000265 10.599204"
   role="img"
   version="1.1"
   id="svg4"
   sodipodi:docname="hoppscotch-svgrepo-com.svg"
   inkscape:version="1.1.2 (b8e25be833, 2022-02-05)"
   xmlns:inkscape="http://www.inkscape.org/namespaces/inkscape"
   xmlns:sodipodi="http://sodipodi.sourceforge.net/DTD/sodipodi-0.dtd"
   xmlns="http://www.w3.org/2000/svg"
   xmlns:svg="http://www.w3.org/2000/svg">
  <defs
     id="defs8" />
  <sodipodi:namedview
     id="namedview6"
     pagecolor="#505050"
     bordercolor="#eeeeee"
     borderopacity="1"
     inkscape:pageshadow="0"
     inkscape:pageopacity="0"
     inkscape:pagecheckerboard="0"
     showgrid="false"
     inkscape:zoom="13.416667"
     inkscape:cx="10.434782"
     inkscape:cy="7.6770184"
     inkscape:window-width="1920"
     inkscape:window-height="1001"
     inkscape:window-x="-9"
     inkscape:window-y="-9"
     inkscape:window-maximized="1"
     inkscape:current-layer="svg4" />
  <path
     d="m 17.119349,4.3121903 c -0.215346,-2.1663502 -1.86562,-3.91442394 -4.016,-4.25400004 -2.188,-0.342 -4.2560003,0.854 -5.1280003,2.78600004 -4.494,-0.278 -7.78399999,0.257 -7.96599999,1.47 -0.17,1.041 1.99199999,2.32 5.38299999,3.362 l 0.2059689,0.006 c 0.1181488,1.961357 8.2075674,3.9915557 12.0356964,2.264137 3.526282,0.3040577 6.186335,-0.794137 6.358335,-1.837137 0.178,-1.188 -2.662,-2.682 -6.873,-3.797 z m -0.375,1.353 c -0.035,0.274 -0.309,0.479 -0.582,0.427 -0.273,-0.052 -0.479,-0.308 -0.428,-0.581 0.053,-0.273 0.309,-0.479 0.582,-0.427 0.273,0.052 0.479,0.307 0.428,0.581 z m -5.162,-1.163 c 0.05386,-0.3773609 0.411264,-0.6338202 0.786,-0.564 0.377834,0.05382 0.63446,0.4119125 0.564,0.787 -0.07574,0.3636145 -0.417279,0.608687 -0.786,0.564 -0.377834,-0.05382 -0.63446,-0.4119125 -0.564,-0.787 z m -3.9490003,-0.273 c 0.051,-0.274 0.307,-0.479 0.581,-0.427 0.274,0.052 0.479,0.308 0.427,0.581 -0.034,0.273 -0.308,0.461 -0.581,0.427 -0.273,-0.051 -0.478,-0.308 -0.427,-0.581 z m 9.5210003,5.419 c -0.119,0.6839997 -2.701,0.8709997 -5.778,0.3759997 C 8.2993487,9.5291903 5.9063487,8.5711903 6.0083487,7.8711903 c 0.068,-0.377 0.854,-0.599 2.051,-0.65 -0.358,0.067 -0.58,0.204 -0.614,0.376 -0.085,0.512 1.744,1.247 4.0680003,1.623 2.342,0.359 4.29,0.24 4.375,-0.291 0.018,-0.17 -0.154,-0.375 -0.479,-0.563 1.13,0.426 1.814,0.872 1.745,1.282 z"
     id="svgIcon"
     sodipodi:nodetypes="ccccccccccscscccccccsccccsccccccc" />
</svg>
