<?xml version="1.0" encoding="UTF-8" standalone="no"?>
<svg
   width="107.30894"
   height="105.86726"
   version="1.1"
   id="svg10"
   sodipodi:docname="Inkscape.svg"
   inkscape:version="1.1.2 (b8e25be833, 2022-02-05)"
   xmlns:inkscape="http://www.inkscape.org/namespaces/inkscape"
   xmlns:sodipodi="http://sodipodi.sourceforge.net/DTD/sodipodi-0.dtd"
   xmlns="http://www.w3.org/2000/svg"
   xmlns:svg="http://www.w3.org/2000/svg"
   xmlns:rdf="http://www.w3.org/1999/02/22-rdf-syntax-ns#"
   xmlns:cc="http://creativecommons.org/ns#"
   xmlns:dc="http://purl.org/dc/elements/1.1/">
  <defs
     id="defs14" />
  <sodipodi:namedview
     id="namedview12"
     pagecolor="#505050"
     bordercolor="#eeeeee"
     borderopacity="1"
     inkscape:pageshadow="0"
     inkscape:pageopacity="0"
     inkscape:pagecheckerboard="0"
     showgrid="false"
     inkscape:zoom="5.03125"
     inkscape:cx="10.732919"
     inkscape:cy="52.869565"
     inkscape:window-width="1920"
     inkscape:window-height="1001"
     inkscape:window-x="-9"
     inkscape:window-y="-9"
     inkscape:window-maximized="1"
     inkscape:current-layer="svg10" />
  <title
     id="title2">Clarity Icon</title>
  <desc
     id="desc4">This is shape (source) for Clarity vector icon theme for gtk</desc>
  <metadata
     id="metadata6">
    <rdf:RDF>
      <cc:Work
         rdf:about="">
        <dc:title>Clarity Icon</dc:title>
        <dc:description>This is shape (source) for Clarity vector icon theme for gtk</dc:description>
        <dc:creator>
          <cc:Agent>
            <dc:title>Jakub Jankiewicz</dc:title>
          </cc:Agent>
        </dc:creator>
        <dc:rights>
          <cc:Agent>
            <dc:title>Jakub Jankiewicz</dc:title>
          </cc:Agent>
        </dc:rights>
        <dc:date>2010</dc:date>
        <dc:format>image/svg+xml</dc:format>
        <dc:type
           rdf:resource="http://purl.org/dc/dcmitype/StillImage" />
        <cc:license
           rdf:resource="http://creativecommons.org/licenses/by-sa/3.0/" />
      </cc:Work>
    </rdf:RDF>
  </metadata>
  <path
     d="M 52.745251,2.7260128e-5 C 49.427807,-0.00657274 46.129608,1.1852383 43.748948,3.6219153 L 4.1418494,44.163696 c -13.3818166,16.571761 9.1114546,14.621511 18.7520326,19.394626 3.458226,3.534877 -13.2431646,6.159488 -9.784939,9.697314 3.458225,3.534877 20.895995,6.80503 24.360118,10.339906 3.458226,3.534879 -7.080113,7.272369 -3.621888,10.807249 3.458226,3.53488 11.471011,0.19313 12.968696,8.353709 1.067238,5.83152 14.415405,2.52698 20.942692,-2.24908 3.458226,-3.537829 -6.612773,-3.212349 -3.154547,-6.747219 8.599867,-8.794446 16.598379,-3.19268 19.54067,-12.004811 1.453457,-4.354474 -12.664887,-6.717404 -9.200764,-10.252281 9.950126,-5.810878 44.35865,-9.589965 28.04043,-25.908183 L 61.916806,3.6219153 C 59.406431,1.2117723 56.062695,0.00666126 52.745251,2.7260128e-5 Z M 53.095756,3.8555863 c 2.3685,0.01252 4.726298,0.877839 6.425931,2.599581 L 75.206799,22.373949 c 1.485881,1.518317 1.444774,4.469867 0.613384,5.315997 l -7.769534,-6.221469 -1.518856,9.200764 -6.513557,-3.417426 -10.398324,6.571974 -3.446636,-13.874168 -5.608084,9.697313 H 32.00702 c -3.484761,0 -3.867363,-4.427929 -0.70101,-7.594281 5.530805,-5.970081 11.856015,-12.0714537 15.305398,-15.5974857 1.733534,-1.771861 4.115848,-2.612112 6.484348,-2.599581 z M 34.285305,65.748981 c 1.058404,0.657445 17.059654,3.937176 20.971901,4.585777 1.356165,0.285975 0.408717,1.656161 -1.460439,2.599581 -4.215906,1.120312 -24.670788,-7.185358 -19.511462,-7.185358 z m 62.2439,11.157752 c -3.22089,0.110926 -6.39738,1.763378 -7.272988,4.848657 0,2.010663 14.808853,3.306612 14.808853,-0.49655 -1.05545,-3.054322 -4.314975,-4.463033 -7.535865,-4.352107 z m -68.523787,8.704215 c -4.489403,0.238499 -9.322048,3.487643 -5.49125,6.805643 3.508343,3.03369 8.919912,-0.73189 10.544368,-4.96549 -1.062274,-1.411445 -3.012476,-1.948562 -5.053118,-1.840153 z m 59.381438,0.262879 c -4.522516,4.056714 0.50783,8.170604 4.965489,5.549664 0.99354,-1.00827 -0.0273,-4.541387 -4.965489,-5.549664 z"
     id="svgIcon"
     style="fill:currentColor" />
</svg>
