<?xml version="1.0" encoding="UTF-8" standalone="no"?>
<svg
   width="23.972"
   height="24.009916"
   viewBox="0 0 23.972 24.009916"
   version="1.1"
   id="svg8"
   sodipodi:docname="JSON.svg"
   inkscape:version="1.1.2 (b8e25be833, 2022-02-05)"
   xmlns:inkscape="http://www.inkscape.org/namespaces/inkscape"
   xmlns:sodipodi="http://sodipodi.sourceforge.net/DTD/sodipodi-0.dtd"
   xmlns="http://www.w3.org/2000/svg"
   xmlns:svg="http://www.w3.org/2000/svg">
  <defs
     id="defs12" />
  <sodipodi:namedview
     id="namedview10"
     pagecolor="#505050"
     bordercolor="#eeeeee"
     borderopacity="1"
     inkscape:pageshadow="0"
     inkscape:pageopacity="0"
     inkscape:pagecheckerboard="0"
     showgrid="false"
     inkscape:zoom="20.125"
     inkscape:cx="1.242236"
     inkscape:cy="12.024845"
     inkscape:window-width="1920"
     inkscape:window-height="1001"
     inkscape:window-x="-9"
     inkscape:window-y="-9"
     inkscape:window-maximized="1"
     inkscape:current-layer="svg8" />
  <title
     id="title2">file_type_json</title>
  <g
     id="svgIcon"
     style="fill:currentColor"
     transform="translate(-4.014,-3.9960895)">
    <path
       d="M 4.014,14.976 A 2.51,2.51 0 0 0 5.581,14.458 2.377,2.377 0 0 0 6.386,13.1 15.261,15.261 0 0 0 6.6,10.156 Q 6.612,8.071 6.675,7.409 A 5.236,5.236 0 0 1 7.093,5.723 3.025,3.025 0 0 1 7.848,4.705 3.046,3.046 0 0 1 9,4.125 6.762,6.762 0 0 1 10.544,4 h 0.7 V 5.96 H 10.857 A 2.338,2.338 0 0 0 9.134,6.428 3.4,3.4 0 0 0 8.709,8.52 36.054,36.054 0 0 1 8.572,12.653 4.734,4.734 0 0 1 7.804,14.713 4.567,4.567 0 0 1 6.1,16 3.809,3.809 0 0 1 8.092,17.754 8.861,8.861 0 0 1 8.71,21.619 q 0,2.435 0.05,2.9 a 1.755,1.755 0 0 0 0.504,1.181 2.639,2.639 0 0 0 1.592,0.337 h 0.387 V 28 h -0.7 A 5.655,5.655 0 0 1 8.77,27.8 2.97,2.97 0 0 1 7.446,26.87 3.353,3.353 0 0 1 6.765,25.24 24.175,24.175 0 0 1 6.6,22.006 16.469,16.469 0 0 0 6.386,18.9 2.408,2.408 0 0 0 5.581,17.539 2.489,2.489 0 0 0 4.014,17.015 Z"
       id="path4"
       style="fill:#000000" />
    <path
       d="m 27.986,17.011 a 2.489,2.489 0 0 0 -1.567,0.524 2.408,2.408 0 0 0 -0.805,1.361 16.469,16.469 0 0 0 -0.212,3.109 24.175,24.175 0 0 1 -0.169,3.234 3.353,3.353 0 0 1 -0.681,1.63 2.97,2.97 0 0 1 -1.324,0.93 5.655,5.655 0 0 1 -1.773,0.2 h -0.7 V 26.04 h 0.387 a 2.639,2.639 0 0 0 1.592,-0.337 1.755,1.755 0 0 0 0.506,-1.186 q 0.05,-0.462 0.05,-2.9 A 8.861,8.861 0 0 1 23.908,17.752 3.809,3.809 0 0 1 25.9,16 4.567,4.567 0 0 1 24.2,14.714 4.734,4.734 0 0 1 23.432,12.654 36.054,36.054 0 0 1 23.295,8.521 3.4,3.4 0 0 0 22.87,6.429 2.338,2.338 0 0 0 21.147,5.961 H 20.76 V 4 h 0.7 a 6.762,6.762 0 0 1 1.54,0.125 3.046,3.046 0 0 1 1.149,0.581 3.025,3.025 0 0 1 0.755,1.018 5.236,5.236 0 0 1 0.418,1.686 q 0.062,0.662 0.075,2.747 a 15.261,15.261 0 0 0 0.212,2.947 2.377,2.377 0 0 0 0.805,1.355 2.51,2.51 0 0 0 1.567,0.518 z"
       id="path6"
       style="fill:#000000" />
  </g>
</svg>
