<?xml version="1.0" encoding="UTF-8" standalone="no"?>
<svg
   width="1024"
   height="1024"
   viewBox="0 0 1024 1024"
   version="1.1"
   id="svg6"
   sodipodi:docname="MongoDB.svg"
   inkscape:version="1.1.2 (b8e25be833, 2022-02-05)"
   xmlns:inkscape="http://www.inkscape.org/namespaces/inkscape"
   xmlns:sodipodi="http://sodipodi.sourceforge.net/DTD/sodipodi-0.dtd"
   xmlns="http://www.w3.org/2000/svg"
   xmlns:svg="http://www.w3.org/2000/svg">
  <defs
     id="defs10">
    <inkscape:path-effect
       effect="powerclip"
       id="path-effect835"
       is_visible="true"
       lpeversion="1"
       inverse="true"
       flatten="false"
       hide_clip="false"
       message="Use fill-rule evenodd on &lt;b&gt;fill and stroke&lt;/b&gt; dialog if no flatten result after convert clip to paths." />
    <clipPath
       clipPathUnits="userSpaceOnUse"
       id="clipPath831">
      <path
         d="m 648.86,449.44 c -32.34,-142.73 -108.77,-189.66 -117,-207.59 -9,-12.65 -18.12,-35.15 -18.12,-35.15 -0.15,-0.38 -0.39,-1.05 -0.67,-1.7 -0.93,12.65 -1.41,17.53 -13.37,30.29 -18.52,14.48 -113.54,94.21 -121.27,256.37 -7.21,151.24 109.25,241.36 125,252.85 l 1.79,1.27 v -0.11 c 0.1,0.76 5,36 8.44,73.34 H 526 a 726.68,726.68 0 0 1 13,-78.53 l 1,-0.65 a 204.48,204.48 0 0 0 20.11,-16.45 l 0.72,-0.65 C 594.31,691.8 654.5,620.26 653.91,506.2 a 347.07,347.07 0 0 0 -5.05,-56.76 z M 512.35,659.12 c 0,0 0,-212.12 7,-212.08 5.46,0 12.53,273.61 12.53,273.61 -9.72,-1.17 -19.53,-45.03 -19.53,-61.53 z"
         style="display:none;fill:#ffffff"
         id="path833" />
      <path
         id="lpe_path-effect835"
         style="fill:#ffffff"
         class="powerclip"
         d="M -5,-5 H 1029 V 1029 H -5 Z m 653.86,454.44 c -32.34,-142.73 -108.77,-189.66 -117,-207.59 -9,-12.65 -18.12,-35.15 -18.12,-35.15 -0.15,-0.38 -0.39,-1.05 -0.67,-1.7 -0.93,12.65 -1.41,17.53 -13.37,30.29 -18.52,14.48 -113.54,94.21 -121.27,256.37 -7.21,151.24 109.25,241.36 125,252.85 l 1.79,1.27 v -0.11 c 0.1,0.76 5,36 8.44,73.34 H 526 a 726.68,726.68 0 0 1 13,-78.53 l 1,-0.65 a 204.48,204.48 0 0 0 20.11,-16.45 l 0.72,-0.65 C 594.31,691.8 654.5,620.26 653.91,506.2 a 347.07,347.07 0 0 0 -5.05,-56.76 z M 512.35,659.12 c 0,16.5 9.81,60.36 19.53,61.53 0,0 -7.07,-273.61 -12.53,-273.61 -7,-0.04 -7,212.08 -7,212.08 z" />
    </clipPath>
  </defs>
  <sodipodi:namedview
     id="namedview8"
     pagecolor="#505050"
     bordercolor="#eeeeee"
     borderopacity="1"
     inkscape:pageshadow="0"
     inkscape:pageopacity="0"
     inkscape:pagecheckerboard="0"
     showgrid="false"
     inkscape:zoom="0.62890625"
     inkscape:cx="168.54658"
     inkscape:cy="512"
     inkscape:window-width="1920"
     inkscape:window-height="1001"
     inkscape:window-x="-9"
     inkscape:window-y="-9"
     inkscape:window-maximized="1"
     inkscape:current-layer="svg6" />
  <path
     style="fill:currentColor"
     id="svgIcon"
     clip-path="url(#clipPath831)"
     inkscape:path-effect="#path-effect835"
     sodipodi:type="arc"
     sodipodi:cx="512"
     sodipodi:cy="512"
     sodipodi:rx="512"
     sodipodi:ry="512"
     d="M 1024,512 A 512,512 0 0 1 512,1024 512,512 0 0 1 0,512 512,512 0 0 1 512,0 512,512 0 0 1 1024,512 Z" />
</svg>
