<?xml version="1.0" encoding="UTF-8" standalone="no"?>
<svg
   width="63.989357"
   height="62.445484"
   viewBox="0 0 25.595743 24.978194"
   version="1.1"
   id="svg4"
   sodipodi:docname="MySQL.svg"
   inkscape:version="1.1.2 (b8e25be833, 2022-02-05)"
   xmlns:inkscape="http://www.inkscape.org/namespaces/inkscape"
   xmlns:sodipodi="http://sodipodi.sourceforge.net/DTD/sodipodi-0.dtd"
   xmlns="http://www.w3.org/2000/svg"
   xmlns:svg="http://www.w3.org/2000/svg">
  <defs
     id="defs8" />
  <sodipodi:namedview
     id="namedview6"
     pagecolor="#505050"
     bordercolor="#eeeeee"
     borderopacity="1"
     inkscape:pageshadow="0"
     inkscape:pageopacity="0"
     inkscape:pagecheckerboard="0"
     showgrid="false"
     inkscape:zoom="10.0625"
     inkscape:cx="10.534161"
     inkscape:cy="30.409938"
     inkscape:window-width="1920"
     inkscape:window-height="1001"
     inkscape:window-x="-9"
     inkscape:window-y="-9"
     inkscape:window-maximized="1"
     inkscape:current-layer="svg4" />
  <path
     d="m 23.576308,19.319658 c -1.392338,-0.03878 -2.472491,0.103933 -3.377823,0.484762 -0.260673,0.104709 -0.678998,0.104709 -0.713338,0.432796 0.139311,0.137673 0.156091,0.36299 0.278233,0.553793 0.208773,0.346314 0.574807,0.81285 0.905331,1.054843 l 1.114104,0.796174 c 0.678999,0.414957 1.445018,0.657338 2.106456,1.072683 0.383205,0.242381 0.76602,0.553792 1.149225,0.813625 0.195114,0.138448 0.313354,0.363766 0.557247,0.44986 v -0.05235 C 25.473991,24.770715 25.438871,24.545785 25.317509,24.372046 L 24.794602,23.870608 C 24.290036,23.195819 23.662938,22.607123 22.98394,22.123136 22.426693,21.742307 21.208398,21.223417 20.982065,20.583531 l -0.03434,-0.03878 c 0.382424,-0.03878 0.83509,-0.173351 1.201125,-0.277285 0.592367,-0.155124 1.131664,-0.120996 1.740421,-0.276508 l 0.836261,-0.242381 V 19.593452 C 24.412178,19.28204 24.185845,18.866696 23.855321,18.572736 22.96755,17.811465 21.991978,17.067257 20.982065,16.444434 20.442378,16.098508 19.74582,15.87319 19.171403,15.579618 18.96185,15.475685 18.614156,15.423719 18.492404,15.250755 18.17827,14.870701 18.004618,14.368488 17.778285,13.91824 L 16.350827,10.907671 C 16.037474,10.232882 15.845481,9.5580923 15.463056,8.9352694 13.669564,5.9937306 11.719199,4.2117436 8.724582,2.463884 8.0807042,2.100506 7.3146847,1.9442186 6.5002767,1.7541917 L 5.1945705,1.6843859 C 4.9155568,1.5633892 4.6373235,1.2345263 4.3934304,1.0786267 3.401078,0.45580379 0.84156602,-0.89377501 0.10988664,0.88472165 -0.3603393,2.0093707 0.80644541,3.1165682 1.2025278,3.6878123 1.4991019,4.0857054 1.8815263,4.535565 2.0910793,4.9854246 2.208148,5.2793846 2.2471709,5.5911838 2.3693126,5.9025952 2.6475458,6.6638663 2.9089993,7.5120067 3.2746438,8.221699 3.4697583,8.585077 3.6746286,8.9662942 3.9185217,9.2947693 4.0578334,9.4886743 4.3017266,9.5716657 4.353627,9.8830771 4.1097339,10.229391 4.092954,10.747893 3.9536423,11.181077 c -0.627098,1.955338 -0.3832049,4.377599 0.5045661,5.81715 0.2790137,0.432408 0.9365496,1.384482 1.8286131,1.020716 0.7835798,-0.311411 0.6087572,-1.297612 0.83509,-2.162816 0.052681,-0.207479 0.01756,-0.345927 0.1217515,-0.484763 v 0.03878 l 0.7141191,1.436061 c 0.5396867,0.847752 1.4801386,1.730408 2.2633279,2.319103 0.417545,0.311412 0.748459,0.848141 1.270586,1.038168 v -0.05235 h -0.03434 C 11.352774,19.995998 11.195902,19.926193 11.056591,19.805196 10.743237,19.493785 10.395152,19.112955 10.151259,18.767029 9.4203604,17.798279 8.7764825,16.725209 8.2016752,15.618011 7.9226615,15.08167 7.6787683,14.493362 7.453216,13.957021 7.3478541,13.749155 7.3478541,13.437356 7.1742022,13.334198 c -0.2614534,0.380054 -0.6438778,0.709693 -0.8362607,1.176616 -0.3309142,0.743819 -0.3652544,1.66099 -0.4870058,2.612676 -0.070241,0.01745 -0.039023,0 -0.070241,0.03878 C 5.2242279,17.02421 5.0322353,16.452578 4.8234627,15.968592 4.3013363,14.74001 4.213925,12.767608 4.6665907,11.348611 4.7883421,10.985233 5.311249,9.8431327 5.1024765,9.4972061 4.9971146,9.1683433 4.6498108,8.9783164 4.4578182,8.7184837 4.2314853,8.3896208 3.9883727,7.9746641 3.8315006,7.6112861 3.4139556,6.6417611 3.2051831,5.5694665 2.7521272,4.6003293 2.5425742,4.1504697 2.1773199,3.6831586 1.8811361,3.2682019 1.5502219,2.8008909 1.1853578,2.472028 0.92390434,1.9186231 0.83688327,1.7247181 0.71513182,1.416797 0.85444358,1.2089308 0.88878373,1.0704826 0.95902495,1.0150258 1.0975562,0.98400101 1.3238891,0.79009601 1.9685474,1.0359676 2.1948802,1.139125 2.838758,1.3989577 3.3784447,1.6409512 3.9181315,2.0039413 4.1620246,2.1769046 4.423478,2.5057675 4.7368319,2.5926369 h 0.3660348 c 0.557247,0.1209967 1.1835646,0.038781 1.7053007,0.193905 0.9228916,0.2947356 1.7583719,0.7267559 2.5076116,1.1944548 2.280498,1.4360604 4.161402,3.4778801 5.431988,5.9179806 0.208772,0.3978927 0.295793,0.7612707 0.487786,1.1766157 0.366035,0.84814 0.8187,1.712957 1.183564,2.544033 0.366035,0.813238 0.71412,1.644315 1.236246,2.319104 0.261453,0.363378 1.305706,0.553405 1.775542,0.74382 0.348474,0.155124 0.887771,0.294735 1.201905,0.484762 0.591587,0.363378 1.183565,0.778723 1.740422,1.176616 0.278233,0.20709 1.149224,0.639886 1.201124,0.985037 z M 5.8208881,4.2834885 a 2.7667236,2.7495729 0 0 0 -0.7133387,0.086482 v 0.038781 h 0.03434 c 0.1393118,0.2768964 0.3832049,0.4673111 0.557247,0.7096923 l 0.4007652,0.830689 0.03434,-0.038781 C 6.3781351,5.7373882 6.5002767,5.4604918 6.5002767,5.0455351 6.3956954,4.9245384 6.3785253,4.8031539 6.2915042,4.6821572 6.1869229,4.5091939 5.96059,4.4223245 5.8208881,4.2842641 Z"
     fill-rule="evenodd"
     id="svgIcon"
     style="fill:currentColor;stroke-width:0.389018" />
</svg>
