<?xml version="1.0" encoding="UTF-8" standalone="no"?>
<svg
   width="57.888214"
   height="63.747719"
   viewBox="0 0 28.944107 31.873859"
   preserveAspectRatio="xMidYMid"
   fill="#8cc84b"
   version="1.1"
   id="svg4"
   sodipodi:docname="Node.svg"
   inkscape:version="1.1.2 (b8e25be833, 2022-02-05)"
   xmlns:inkscape="http://www.inkscape.org/namespaces/inkscape"
   xmlns:sodipodi="http://sodipodi.sourceforge.net/DTD/sodipodi-0.dtd"
   xmlns="http://www.w3.org/2000/svg"
   xmlns:svg="http://www.w3.org/2000/svg">
  <defs
     id="defs8" />
  <sodipodi:namedview
     id="namedview6"
     bordercolor="#eeeeee"
     borderopacity="1"
     inkscape:pageshadow="0"
     inkscape:pageopacity="0"
     inkscape:pagecheckerboard="0"
     showgrid="false"
     pagecolor="#505050"
     inkscape:zoom="10.0625"
     inkscape:cx="7.552795"
     inkscape:cy="31.801242"
     inkscape:window-width="1920"
     inkscape:window-height="1001"
     inkscape:window-x="-9"
     inkscape:window-y="-9"
     inkscape:window-maximized="1"
     inkscape:current-layer="svg4" />
  <path
     d="m 13.160035,0.34050041 c 0.8,-0.453 1.82,-0.455 2.6,0 l 11.944,6.73299999 c 0.747,0.42 1.247,1.253 1.24,2.114 V 22.6875 c 0.005,0.897 -0.544,1.748 -1.332,2.16 l -11.88,6.702 a 2.6,2.6 0 0 1 -2.639,-0.073 l -3.5650004,-2.06 c -0.243,-0.145 -0.516,-0.26 -0.688,-0.495 0.152,-0.204 0.422,-0.23 0.642,-0.32 0.496,-0.158 0.9500004,-0.4 1.4060004,-0.656 0.115,-0.08 0.256,-0.05 0.366,0.022 l 3.04,1.758 c 0.217,0.125 0.437,-0.04 0.623,-0.145 l 11.665,-6.583 c 0.144,-0.07 0.224,-0.222 0.212,-0.38 V 9.2475004 c 0.016,-0.18 -0.087,-0.344 -0.25,-0.417 l -11.85,-6.673 a 0.41,0.41 0 0 0 -0.465,-10e-4 l -11.8330004,6.687 c -0.16,0.073 -0.27,0.235 -0.25,0.415 V 22.6285 c -0.014,0.158 0.07,0.307 0.215,0.375 l 3.162,1.785 c 0.594,0.32 1.323,0.5 1.977,0.265 a 1.5,1.5 0 0 0 0.971,-1.409 l 0.003,-13.29 c -0.014,-0.197 0.172,-0.3599996 0.363,-0.34 h 1.5200004 c 0.2,-0.005 0.357,0.207 0.33,0.405 l -0.003,13.374 c 10e-4,1.188 -0.487,2.48 -1.5860004,3.063 -1.354,0.7 -3.028,0.553 -4.366,-0.12 l -3.4,-1.88 c -0.79999998,-0.4 -1.33699998,-1.264 -1.331999978476,-2.16 V 9.1965004 A 2.46,2.46 0 0 1 1.2820346,7.0555004 Z m 3.444,9.35799999 c 1.727,-0.1 3.576,-0.066 5.13,0.7849996 1.203,0.652 1.87,2.02 1.892,3.358 -0.034,0.18 -0.222,0.28 -0.394,0.267 -0.5,-10e-4 -1.002,0.007 -1.504,-0.003 -0.213,0.008 -0.336,-0.188 -0.363,-0.376 -0.144,-0.64 -0.493,-1.273 -1.095,-1.582 -0.924,-0.463 -1.996,-0.44 -3.004,-0.43 -0.736,0.04 -1.527,0.103 -2.15,0.535 -0.48,0.328 -0.624,1 -0.453,1.522 0.16,0.383 0.603,0.506 0.964,0.62 2.082,0.544 4.287,0.5 6.33,1.207 0.845,0.292 1.672,0.86 1.962,1.745 0.378,1.186 0.213,2.604 -0.63,3.556 -0.684,0.784 -1.68,1.2 -2.675,1.442 -1.323,0.295 -2.695,0.302 -4.038,0.17 -1.263,-0.144 -2.577,-0.476 -3.552,-1.336 -0.834,-0.724 -1.24,-1.852 -1.2,-2.94 0.01,-0.184 0.193,-0.312 0.37,-0.297 h 1.5 c 0.202,-0.014 0.35,0.16 0.36,0.35 0.093,0.6 0.322,1.25 0.854,1.6 1.026,0.662 2.313,0.616 3.487,0.635 0.973,-0.043 2.065,-0.056 2.86,-0.7 0.42,-0.367 0.543,-0.98 0.43,-1.508 -0.123,-0.446 -0.6,-0.653 -1,-0.8 -2.055,-0.65 -4.285,-0.414 -6.32,-1.15 -0.826,-0.292 -1.625,-0.844 -1.942,-1.693 -0.443,-1.2 -0.24,-2.687 0.693,-3.607 0.9,-0.915 2.22,-1.2679996 3.47,-1.3939996 z"
     id="svgIcon"
     style="fill:currentColor" />
</svg>
