<?xml version="1.0" encoding="UTF-8" standalone="no"?>
<svg
   viewBox="0 0 448.01431 448.01532"
   version="1.1"
   id="svg4"
   sodipodi:docname="Python.svg"
   inkscape:version="1.1.2 (b8e25be833, 2022-02-05)"
   width="448.01431"
   height="448.01532"
   xmlns:inkscape="http://www.inkscape.org/namespaces/inkscape"
   xmlns:sodipodi="http://sodipodi.sourceforge.net/DTD/sodipodi-0.dtd"
   xmlns="http://www.w3.org/2000/svg"
   xmlns:svg="http://www.w3.org/2000/svg">
  <defs
     id="defs8" />
  <sodipodi:namedview
     id="namedview6"
     pagecolor="#505050"
     bordercolor="#eeeeee"
     borderopacity="1"
     inkscape:pageshadow="0"
     inkscape:pageopacity="0"
     inkscape:pagecheckerboard="0"
     showgrid="false"
     inkscape:zoom="1.2578125"
     inkscape:cx="52.47205"
     inkscape:cy="224.19876"
     inkscape:window-width="1920"
     inkscape:window-height="1001"
     inkscape:window-x="-9"
     inkscape:window-y="-9"
     inkscape:window-maximized="1"
     inkscape:current-layer="svg4" />
  <!--! Font Awesome Free 6.2.1 by @fontawesome - https://fontawesome.com License - https://fontawesome.com/license/free (Icons: CC BY 4.0, Fonts: SIL OFL 1.1, Code: MIT License) Copyright 2022 Fonticons, Inc. -->
  <path
     d="m 439.80075,168.50129 c -7.7,-30.9 -22.3,-54.2 -53.4,-54.2 h -40.1 v 47.4 c 0,36.8 -31.2,67.8 -66.8,67.8 h -106.8 c -29.2,0 -53.4,25 -53.4,54.3 v 101.8 c 0,29 25.2,46 53.4,54.3 33.8,9.9 66.3,11.7 106.8,0 26.9,-7.8 53.4,-23.5 53.4,-54.3 v -40.7 h -106.7 v -13.6 h 160.2 c 31.1,0 42.6,-21.7 53.4,-54.2 11.2,-33.5 10.7,-65.7 0,-108.6 z m -153.6,203.5 c 11.1,0 20.1,9.1 20.1,20.3 0,11.3 -9,20.4 -20.1,20.4 -11,0 -20.1,-9.2 -20.1,-20.4 0.1,-11.3 9.1,-20.3 20.1,-20.3 z m -118.4,-155.9 h 106.8 c 29.7,0 53.4,-24.5 53.4,-54.3 V 59.901293 c 0,-29 -24.4,-50.7000004 -53.4,-55.6000004 -35.8,-5.9 -74.7,-5.6 -106.8,0.1 -45.2,8.0000004 -53.4,24.7000004 -53.4,55.6000004 v 40.699997 h 106.9 v 13.6 h -147 c -31.1,0 -58.3,18.7 -66.8000001,54.2 -9.8,40.7 -10.2,66.1 0,108.6 7.6000001,31.6 25.7000001,54.2 56.8000001,54.2 h 36.7 v -48.8 c 0,-35.3 30.5,-66.4 66.8,-66.4 z m -6.7,-142.599997 c -11.1,0 -20.1,-9.1 -20.1,-20.3 0.1,-11.3 9,-20.4 20.1,-20.4 11,0 20.1,9.2 20.1,20.4 0,11.2 -9,20.3 -20.1,20.3 z"
     id="svgIcon"
     style="fill:currentColor" />
</svg>
