<?xml version="1.0" encoding="UTF-8" standalone="no"?>
<svg
   width="26"
   height="13"
   viewBox="0 0 26 13"
   fill="none"
   version="1.1"
   id="svg53"
   sodipodi:docname="qmlpluginIcon.svg"
   inkscape:version="1.1.2 (b8e25be833, 2022-02-05)"
   xmlns:inkscape="http://www.inkscape.org/namespaces/inkscape"
   xmlns:sodipodi="http://sodipodi.sourceforge.net/DTD/sodipodi-0.dtd"
   xmlns="http://www.w3.org/2000/svg"
   xmlns:svg="http://www.w3.org/2000/svg">
  <sodipodi:namedview
     id="namedview55"
     pagecolor="#505050"
     bordercolor="#eeeeee"
     borderopacity="1"
     inkscape:pageshadow="0"
     inkscape:pageopacity="0"
     inkscape:pagecheckerboard="0"
     showgrid="false"
     inkscape:zoom="16.1"
     inkscape:cx="5.2173913"
     inkscape:cy="17.639752"
     inkscape:window-width="1920"
     inkscape:window-height="1001"
     inkscape:window-x="-9"
     inkscape:window-y="-9"
     inkscape:window-maximized="1"
     inkscape:current-layer="g31" />
  <g
     clip-path="url(#clip0)"
     id="g31"
     transform="translate(-8.0745344,-2.3788819)">
    <mask
       id="mask0"
       mask-type="alpha"
       maskUnits="userSpaceOnUse"
       x="4"
       y="3"
       width="32"
       height="33">
      <rect
         x="4"
         y="3"
         width="32"
         height="33"
         rx="5"
         fill="#ffffff"
         id="rect6" />
    </mask>
    <path
       x="8.0745344"
       y="2.3788819"
       width="26"
       height="13"
       rx="5"
       id="svgIcon"
       clip-path="url(#clipPath1469)"
       inkscape:path-effect="#path-effect1473"
       d="m 13.074534,2.3788819 h 16 c 2.77,0 5,2.23 5,5 v 3.0000001 c 0,2.77 -2.23,5 -5,5 h -16 c -2.77,0 -4.9999996,-2.23 -4.9999996,-5 V 7.3788819 c 0,-2.77 2.2299996,-5 4.9999996,-5 z"
       sodipodi:type="rect"
       fill="#73c924"
       style="fill:#000000" />
  </g>
  <defs
     id="defs51">
    <inkscape:path-effect
       effect="powerclip"
       id="path-effect1473"
       is_visible="true"
       lpeversion="1"
       inverse="true"
       flatten="false"
       hide_clip="false"
       message="Use fill-rule evenodd on &lt;b&gt;fill and stroke&lt;/b&gt; dialog if no flatten result after convert clip to paths." />
    <filter
       id="filter0_d"
       x="1"
       y="2"
       width="38"
       height="39"
       filterUnits="userSpaceOnUse"
       color-interpolation-filters="sRGB">
      <feFlood
         flood-opacity="0"
         result="BackgroundImageFix"
         id="feFlood33" />
      <feColorMatrix
         in="SourceAlpha"
         type="matrix"
         values="0 0 0 0 0 0 0 0 0 0 0 0 0 0 0 0 0 0 127 0"
         id="feColorMatrix35" />
      <feOffset
         dy="2"
         id="feOffset37" />
      <feGaussianBlur
         stdDeviation="1.5"
         id="feGaussianBlur39" />
      <feColorMatrix
         type="matrix"
         values="0 0 0 0 0 0 0 0 0 0 0 0 0 0 0 0 0 0 0.1 0"
         id="feColorMatrix41" />
      <feBlend
         mode="normal"
         in2="BackgroundImageFix"
         result="effect1_dropShadow"
         id="feBlend43" />
      <feBlend
         mode="normal"
         in="SourceGraphic"
         in2="effect1_dropShadow"
         result="shape"
         id="feBlend45" />
    </filter>
    <clipPath
       id="clip0">
      <rect
         width="40"
         height="40"
         fill="#ffffff"
         id="rect48"
         x="0"
         y="0" />
    </clipPath>
    <clipPath
       clipPathUnits="userSpaceOnUse"
       id="clipPath1469">
      <path
         d="m 14.422434,12.498882 c -1.04,0 -1.77,-0.28 -2.19,-0.84 -0.42,-0.56 -0.63,-1.44 -0.63,-2.64 0,-1.2067 0.21,-2.1 0.63,-2.68 0.4267,-0.5867 1.1567,-0.88 2.19,-0.88 1.0333,0 1.76,0.2933 2.18,0.88 0.4267,0.58 0.64,1.4733 0.64,2.68 0,1.48 -0.35,2.4767 -1.05,2.99 l 0.83,1.34 -1.26,0.59 -0.9,-1.47 c -0.0667,0.02 -0.2133,0.03 -0.44,0.03 z m -1.11,-1.72 c 0.2,0.3467 0.57,0.52 1.11,0.52 0.54,0 0.9067,-0.1733 1.1,-0.52 0.2,-0.3467 0.3,-0.9333 0.3,-1.76 0,-0.8267 -0.1,-1.4267 -0.3,-1.8 -0.2,-0.3733 -0.5667,-0.56 -1.1,-0.56 -0.5333,0 -0.9,0.1867 -1.1,0.56 -0.2,0.3733 -0.3,0.9733 -0.3,1.8 0,0.8267 0.0967,1.4133 0.29,1.76 z m 5.1134,1.6 v -6.8 h 2.35 l 1.2,4.96 1.2,-4.96 h 2.35 v 6.8 h -1.38 v -5.26 h -0.15 l -1.33,4.96 h -1.38 l -1.33,-4.96 h -0.15 v 5.26 z m 12.454,0 h -3.87 v -6.8 h 1.38 v 5.58 h 2.49 z"
         fill="#ffffff"
         id="path1471"
         style="display:none" />
      <path
         id="lpe_path-effect1473"
         class="powerclip"
         d="M 3.0745344,-2.6211181 H 39.074534 V 20.378882 H 3.0745344 Z M 14.422434,12.498882 c 0.2267,0 0.3733,-0.01 0.44,-0.03 l 0.9,1.47 1.26,-0.59 -0.83,-1.34 c 0.7,-0.5133 1.05,-1.51 1.05,-2.99 0,-1.2067 -0.2133,-2.1 -0.64,-2.68 -0.42,-0.5867 -1.1467,-0.88 -2.18,-0.88 -1.0333,0 -1.7633,0.2933 -2.19,0.88 -0.42,0.58 -0.63,1.4733 -0.63,2.68 0,1.2 0.21,2.08 0.63,2.64 0.42,0.56 1.15,0.84 2.19,0.84 z m -1.11,-1.72 c 0.2,0.3467 0.57,0.52 1.11,0.52 0.54,0 0.9067,-0.1733 1.1,-0.52 0.2,-0.3467 0.3,-0.9333 0.3,-1.76 0,-0.8267 -0.1,-1.4267 -0.3,-1.8 -0.2,-0.3733 -0.5667,-0.56 -1.1,-0.56 -0.5333,0 -0.9,0.1867 -1.1,0.56 -0.2,0.3733 -0.3,0.9733 -0.3,1.8 0,0.8267 0.0967,1.4133 0.29,1.76 z m 5.1134,1.6 h 1.38 v -5.26 h 0.15 l 1.33,4.96 h 1.38 l 1.33,-4.96 h 0.15 v 5.26 h 1.38 v -6.8 h -2.35 l -1.2,4.96 -1.2,-4.96 h -2.35 z m 12.454,0 v -1.22 h -2.49 v -5.58 h -1.38 v 6.8 z" />
    </clipPath>
  </defs>
</svg>
