<?xml version="1.0" encoding="UTF-8" standalone="no"?>
<!-- Created with Inkscape (http://www.inkscape.org/) -->

<svg
   width="33.315132mm"
   height="33.31501mm"
   viewBox="0 0 33.315132 33.31501"
   version="1.1"
   id="svg7126"
   sodipodi:docname="rounded outline.svg"
   inkscape:version="1.1 (c68e22c387, 2021-05-23)"
   xmlns:inkscape="http://www.inkscape.org/namespaces/inkscape"
   xmlns:sodipodi="http://sodipodi.sourceforge.net/DTD/sodipodi-0.dtd"
   xmlns="http://www.w3.org/2000/svg"
   xmlns:svg="http://www.w3.org/2000/svg">
  <sodipodi:namedview
     id="namedview7128"
     pagecolor="#505050"
     bordercolor="#eeeeee"
     borderopacity="1"
     inkscape:pageshadow="0"
     inkscape:pageopacity="0"
     inkscape:pagecheckerboard="0"
     inkscape:document-units="mm"
     showgrid="false"
     inkscape:zoom="2.8934905"
     inkscape:cx="60.307785"
     inkscape:cy="42.509212"
     inkscape:window-width="998"
     inkscape:window-height="1030"
     inkscape:window-x="2451"
     inkscape:window-y="65"
     inkscape:window-maximized="0"
     inkscape:current-layer="layer1" />
  <defs
     id="defs7123" />
  <g
     inkscape:label="Layer 1"
     inkscape:groupmode="layer"
     id="layer1"
     transform="translate(-145.5139,-70.299792)">
    <g
       id="g9405"
       transform="matrix(0.35277777,0,0,-0.35277872,124.23879,165.92117)">
      <path
         d="m 131.15,179.116 v 2.5 H 83.9008 c -5.1422,10e-4 -9.7746,2.077 -13.1473,5.446 -3.3687,3.373 -5.4445,8.005 -5.4461,13.148 v 47.249 c 0.0016,5.142 2.0774,9.775 5.4461,13.147 3.3727,3.369 8.0051,5.445 13.1473,5.446 H 131.15 c 5.143,-0.001 9.775,-2.077 13.148,-5.446 3.368,-3.372 5.444,-8.005 5.446,-13.147 V 200.21 c -0.002,-5.143 -2.078,-9.775 -5.446,-13.148 -3.373,-3.369 -8.005,-5.445 -13.148,-5.446 v -2.5 -2.5 c 13.031,0.002 23.592,10.562 23.594,23.594 v 47.249 c -0.002,13.031 -10.563,23.592 -23.594,23.593 H 83.9008 C 70.8699,271.051 60.3094,260.49 60.3074,247.459 V 200.21 c 0.002,-13.032 10.5625,-23.592 23.5934,-23.594 H 131.15 v 2.5"
         style="fill:#000000;fill-opacity:1;fill-rule:nonzero;stroke:none;stroke-width:0.1"
         id="path70" />
      <path
         d="m 108.503,251.13 c -14.3319,0 -25.9534,-11.62 -25.9534,-25.955 0,-4.904 1.3621,-9.489 3.7258,-13.403 l -4.6859,-13.923 14.3695,4.599 c 3.7191,-2.055 7.995,-3.228 12.544,-3.228 14.337,0 25.957,11.621 25.957,25.955 0,14.335 -11.62,25.955 -25.957,25.955 z m 0,-47.562 c -4.386,0 -8.474,1.317 -11.8854,3.574 l -8.3031,-2.659 2.6988,8.025 c -2.5871,3.561 -4.1141,7.937 -4.1141,12.667 0,11.916 9.6926,21.608 21.6038,21.608 11.916,0 21.608,-9.692 21.608,-21.608 0,-11.913 -9.692,-21.607 -21.608,-21.607 z m 12.171,15.709 c -0.651,0.357 -3.847,2.081 -4.445,2.326 -0.599,0.244 -1.038,0.37 -1.505,-0.277 -0.465,-0.644 -1.793,-2.09 -2.193,-2.517 -0.405,-0.429 -0.792,-0.469 -1.445,-0.112 -0.648,0.357 -2.757,1.136 -5.203,3.488 -1.904,1.83 -3.152,4.047 -3.513,4.725 -0.364,0.678 -0.003,1.024 0.341,1.341 0.31,0.287 0.692,0.751 1.039,1.124 0.343,0.373 0.464,0.646 0.702,1.08 0.237,0.433 0.141,0.823 -0.013,1.162 -0.152,0.337 -1.356,3.647 -1.857,4.994 -0.503,1.346 -1.062,1.147 -1.449,1.161 -0.386,0.014 -0.826,0.086 -1.267,0.103 -0.4437,0.017 -1.1672,-0.122 -1.7976,-0.762 -0.6329,-0.64 -2.4051,-2.178 -2.5262,-5.439 -0.1234,-3.26 2.1332,-6.499 2.448,-6.951 0.3145,-0.456 4.3058,-7.523 10.9398,-10.427 6.637,-2.906 6.673,-2.022 7.889,-1.956 1.22,0.065 3.98,1.458 4.592,2.982 0.61,1.527 0.659,2.853 0.504,3.135 -0.156,0.282 -0.592,0.465 -1.241,0.82"
         style="fill:#000000;fill-opacity:1;fill-rule:evenodd;stroke:none;stroke-width:0.1"
         id="path72" />
    </g>
  </g>
</svg>
